<?xml version="1.0" encoding="UTF-8" standalone="no"?>
<!-- Created with Inkscape (http://www.inkscape.org/) -->

<svg
   version="1.1"
   id="svg1"
   width="914"
   height="1280"
   viewBox="0 0 914 1280"
   sodipodi:docname="2.svg"
   inkscape:version="1.4.2 (f4327f4, 2025-05-13)"
   xmlns:inkscape="http://www.inkscape.org/namespaces/inkscape"
   xmlns:sodipodi="http://sodipodi.sourceforge.net/DTD/sodipodi-0.dtd"
   xmlns="http://www.w3.org/2000/svg"
   xmlns:svg="http://www.w3.org/2000/svg">
  <defs
     id="defs1" />
  <sodipodi:namedview
     id="namedview1"
     pagecolor="#ffffff"
     bordercolor="#000000"
     borderopacity="0.25"
     inkscape:showpageshadow="2"
     inkscape:pageopacity="0.0"
     inkscape:pagecheckerboard="0"
     inkscape:deskcolor="#d1d1d1"
     inkscape:zoom="0.5"
     inkscape:cx="263"
     inkscape:cy="311"
     inkscape:window-width="1920"
     inkscape:window-height="1001"
     inkscape:window-x="-9"
     inkscape:window-y="-9"
     inkscape:window-maximized="1"
     inkscape:current-layer="svg1" />
  <path
     style="fill:#f9d3d3;fill-opacity:1;stroke-width:1.66193"
     d="m 44.10791,160.54677 c 8.52904,-3.92159 33.56641,-7.16218 61.3185,-4.3123 19.70282,2.02331 40.41665,8.5456 59.16188,13.67705 0.50704,0.13877 6.77082,0.72109 6.40333,1.73969 -0.55979,1.55163 -8.42135,3.71934 -11.83636,3.75557 -4.5026,0.0477 -34.34808,7.39511 -46.31084,16.7738 -9.50826,7.45436 -19.63978,14.69893 -25.62542,23.13317 -10.62519,14.97175 -13.09369,30.07641 -10.81255,30.97538 0.89651,0.35331 2.95733,-1.28771 4.65271,-3.52935 1.42589,-1.88531 2.20678,-4.24816 5.64556,-5.68487 11.88596,-4.96592 42.66697,-34.08979 61.21458,-42.17478 7.14866,-3.11614 7.00754,-3.17539 13.07784,-4.65657 1.85548,-0.45274 -15.23225,10.88908 -12.01322,10.09982 1.58457,-0.38853 -46.6669,23.63741 -41.45664,21.0635 2.21874,-1.09609 -23.33273,11.75178 -20.98447,14.64431 3.16043,3.89295 35.02074,-2.11837 46.24645,-7.41388 26.93194,-12.70467 46.31455,-42.6116 46.77222,-42.66603 1.62329,-0.19305 -2.7095,3.8036 -3.19469,8.31658 -2.182,20.29591 -16.57014,76.42607 -12.65449,77.17457 1.77465,0.33924 13.84349,-12.8953 23.75106,-32.91286 6.03796,-12.19925 2.86583,-35.71668 5.0233,-47.34445 0.9505,-5.12271 5.35743,-3.54416 9.32752,-2.62496 2.41773,0.55978 3.89534,5.71916 5.35897,6.16097 12.33824,11.62845 46.80247,26.57156 69.4963,27.16425 10.15371,0.26518 51.6236,-2.81508 75.51819,-17.27563 16.30789,-9.86922 33.52395,-22.17682 46.92151,-35.34591 17.63482,-17.33411 30.93654,-35.55211 49.57083,-45.60586 22.81113,-12.30728 44.70155,-16.51956 44.70808,-19.40111 0.005,-1.98233 -26.30032,-1.06879 -55.7037,11.53871 -25.67613,11.00934 -54.7406,45.06415 -79.35516,62.35021 -27.76989,19.50194 -50.04589,21.85434 -58.60884,24.78095 -23.59463,8.0641 -66.70086,-1.71443 -66.5319,-1.67261 2.31452,0.57285 -17.99972,-10.64055 -16.32822,-10.20657 7.41796,1.92593 21.04423,4.93337 37.61303,4.41504 14.78763,-0.4626 28.19846,-8.60677 29.23918,-11.12887 0.87611,-2.12318 -74.85962,-10.58742 -72.2601,-13.18594 1.93891,-1.93816 18.38046,-6.77673 31.68578,-16.11872 10.72602,-7.53099 18.79564,-19.87977 20.34979,-21.42422 4.48855,-4.46049 9.13533,-12.57413 10.99547,-16.06617 6.77444,-12.71761 5.84703,-14.40163 2.28433,-14.3596 -4.48034,0.0528 -2.55908,-2.38574 -19.87933,14.22826 -1.14155,1.09499 -48.84724,40.45138 -48.00501,38.92061 4.82846,-8.77576 50.11762,-46.1165 61.15115,-49.81598 12.29398,-4.1221 21.12402,-9.10756 22.37086,-11.61399 1.64997,-3.31684 -6.70305,-1.56782 -9.04011,-5.36088 -1.12173,-1.82057 -0.59903,-10.38012 -2.78663,-9.84117 -1.19237,0.29376 -3.99308,9.05853 -6.45209,9.78975 -5.63175,1.67466 -16.36597,3.53146 -28.29588,10.79967 -14.06655,8.56996 -29.22403,19.63815 -35.08701,29.87475 -5.03392,8.78905 -14.15205,22.503 -18.03231,25.43181 -2.64494,1.99638 -1.03806,-5.38187 -1.17017,-5.64663 -1.13924,-2.28312 1.73999,-42.90761 10.53014,-73.71874 5.0225,-17.60479 14.83754,-31.61911 18.45308,-37.26793 1.40295,-2.19195 0.6305,-3.4613 0.0765,-3.45729 -21.4468,0.15472 -36.42822,31.51426 -41.37494,59.23193 -2.27999,12.77535 -1.81364,29.61633 -1.32229,34.11482 0.52484,4.80509 4.31107,21.89078 4.94522,30.68171 0.26441,3.66544 -1.2591,5.44243 -1.81616,4.9984 -2.53291,-2.01895 -7.01291,-2.19886 -10.4241,-4.12246 -12.34607,-6.96204 -28.12423,-14.97414 -43.84912,-19.51927 -50.12755,-14.4889 -79.29743,11.48342 -82.65148,19.64032 z"
     id="path227-7"
     sodipodi:nodetypes="cssssssssssssssssssssscssssssssssssssssssssssssssssssssssssscc"
     inkscape:label="ROSA CLARO" />
  <g
     id="g227"
     transform="matrix(1.6619332,0,0,1.6619332,-160.83079,-183.11631)">
    <path
       style="fill:#f4adad;fill-opacity:1"
       d="m 277.93134,169.36602 c 2.79066,2.12691 7.43493,8.86358 9.24821,15.10424 0.84043,2.89243 0.53688,4.83218 0.36916,7.51708 -0.37618,6.02163 -5.1479,10.87342 -7.93493,14.81884 -3.18411,4.50755 -10.66642,12.8166 -8.61804,13.70995 5.21279,-2.39713 9.57135,-3.68833 13.18471,-6.15102 36.5459,-24.90791 -3.13903,-52.56268 -6.24911,-44.99909 z"
       id="path227-1"
       sodipodi:nodetypes="cssscsc" />
    <path
       style="fill:#f4adad;fill-opacity:1"
       d="m 235.23266,132.06551 c 9.66361,7.36513 11.30584,7.61128 30.63227,23.55217 6.20752,-20.42876 -27.21469,-31.86359 -30.63227,-23.55217 z"
       id="path227"
       sodipodi:nodetypes="ccc" />
    <path
       style="fill:#f4adad;fill-opacity:1"
       d="m 121.38433,210.19571 c -9.12033,18.491 0.25221,41.49461 21.2403,39.66301 3.39565,-4.82616 0.4497,-6.28727 -3.4288,-8.71526 -3.76651,-2.3579 -8.07825,-6.60038 -9.93947,-8.76066 -3.89147,-4.51674 -5.30455,-9.24514 -5.85386,-14.00917 -0.81308,-7.05159 -0.64958,-11.50627 -2.01817,-8.17792 z"
       id="path227-16"
       sodipodi:nodetypes="ccsssc" />
    <path
       style="fill:#f4adad;fill-opacity:1"
       d="m 195.11016,236.61014 c -5.22561,3.44017 -10.85653,6.50548 -14.88893,11.22007 -11.87121,13.87956 -17.72159,33.43663 -20.605,50.71801 -4.35208,26.08374 -0.003,49.65357 2.62205,53.0774 1.54996,-10.56618 3.33819,-35.20793 8.97169,-59.94269 2.09266,-9.18818 7.70344,-17.92761 10.33162,-25.92603 5.88987,-17.92482 13.86836,-27.14986 13.56857,-29.14676 z"
       id="path227-3"
       sodipodi:nodetypes="csscssc" />
    <path
       style="fill:#f4adad;fill-opacity:1"
       d="m 212.18025,231.24918 c 2.73396,2.08369 4.92105,9.21964 7.28292,24.69296 2.30758,15.11771 4.92642,38.32527 -3.75739,61.51651 -8.01802,21.41316 -27.35019,41.60914 -43.68318,62.71265 -11.86862,15.33518 -21.53979,33.53638 -27.12018,41.42343 1.95457,-6.43243 10.17342,-34.59948 26.67767,-55.12236 12.34389,-15.34951 25.37976,-32.14117 32.47191,-51.48383 2.77794,-7.57637 6.05064,-14.2879 7.28067,-22.52433 1.99102,-13.33202 0.97096,-28.08441 1.32426,-37.73173 0.66786,-18.23692 0.3937,-25.60004 -0.47668,-23.4833 z"
       id="path227-38"
       sodipodi:nodetypes="cssscssssc" />
    <path
       style="fill:#f4adad;fill-opacity:1"
       d="m 407.37804,173.88702 c 9.87274,4.75629 43.38142,14.01322 71.90796,18.36487 14.48191,2.20917 24.30816,2.18758 32.47775,1.44113 5.6595,-0.5171 12.89056,-0.95695 12.479,-2.99713 -2.05871,-2.4985 -11.60602,-1.94742 -24.01412,-5.25054 -32.33079,-8.60668 -90.38086,-17.56462 -92.85059,-11.55833 z"
       id="path227-14"
       sodipodi:nodetypes="csscsc" />
    <path
       style="fill:#f4adad;fill-opacity:1"
       d="m 141.66791,262.88122 c 0.12715,22.39228 6.46537,26.32297 22.61298,30.12655 0.46258,-1.52236 7.18695,-0.36004 13.12077,-3.29567 8.51864,-4.21441 17.01764,-12.73542 16.64304,-14.74273 -0.53817,-2.88373 -4.08788,-0.54185 -9.26485,1.31657 -3.09956,1.11268 -7.22524,1.6535 -10.85629,2.54647 -4.82726,1.18714 -9.1684,2.49768 -12.83817,1.74667 -13.51292,-2.76539 -17.87801,-21.44178 -19.41748,-17.69786 z"
       id="path227-5"
       sodipodi:nodetypes="ccsssssc" />
  </g>
  <path
     style="fill:#85132a;fill-opacity:1;stroke-width:1.66193"
     d="m 89.22986,1002.1425 c 0.008,-1.5996 3.42341,-19.3615 7.5885,-39.4709 17.27937,-83.42601 20.87998,-117.49964 17.44407,-165.07835 -4.13606,-57.27402 -10.52396,-84.16063 -37.21472,-156.63605 -14.378,-39.04172 -14.9924,-73.90742 -1.98917,-112.8811 2.28728,-6.85547 6.37635,-19.9432 9.08683,-29.08383 8.93466,-30.13055 26.86454,-61.6928 55.48004,-97.66232 27.35332,-34.38299 36.51237,-51.32145 44.69491,-82.65743 4.53185,-17.35524 5.05205,-22.0915 5.65859,-51.51993 0.66321,-32.17837 0.64704,-32.36065 -2.28576,-25.75996 -7.30524,16.44152 -9.0998,18.75671 -34.20157,44.12462 -4.40923,4.45596 -12.04027,10.07027 -16.95787,12.47623 -6.84499,3.34895 -9.33647,5.60383 -10.62763,9.61838 -3.78924,11.78176 -10.06317,48.13992 -11.80258,68.39736 -2.93808,34.21731 -3.51149,39.38203 -4.28626,38.60725 -0.40041,-0.40041 -2.62172,-8.12905 -4.93626,-17.17473 -6.60183,-25.80143 -7.19477,-65.73315 -1.3322,-89.71845 0.70231,-2.87335 -0.44465,-3.96429 -6.66569,-6.34013 -8.28596,-3.16443 -16.15822,-11.09837 -20.42152,-20.58149 -2.12488,-4.72654 -2.72869,-10.70048 -2.58041,-25.53022 l 0.19356,-19.35985 -6.08374,-1.14131 C 39.66752,229.45677 23.7008,196.68408 36.59529,170.32866 c 13.44454,-27.47965 37.75076,-39.11175 72.43308,-34.66392 22.17273,2.84354 43.32985,10.77395 59.95869,22.47457 7.87087,5.53823 14.40258,6.19838 12.44446,1.25776 -5.8802,-14.83665 -7.60714,-53.04178 -3.23582,-71.58666 5.27074,-22.36065 18.7496,-43.07143 32.64504,-50.16035 11.01366,-5.61877 26.41917,-8.3577 36.38181,-6.46833 12.02329,2.28017 24.24152,9.54397 30.44284,18.09845 4.79342,6.61233 5.20433,8.27992 5.7243,23.23133 l 0.56017,16.10766 11.07336,3.10341 c 21.90453,6.13895 33.69472,14.04882 39.48881,26.4925 4.61579,9.91309 5.03503,18.97806 1.37452,29.72104 -4.89112,14.35465 -22.09557,29.64908 -39.9366,35.50287 -4.47406,1.46799 -11.90002,4.45996 -16.50215,6.64885 -16.08718,7.65145 -31.76587,8.49625 -57.27888,3.08626 -2.28515,-0.48457 0.70633,1.0882 6.64774,3.49506 5.94141,2.40684 17.52636,5.53098 25.74434,6.94252 19.23742,3.30429 40.34381,1.11348 61.65006,-6.39919 29.84313,-10.52279 44.80258,-20.17128 75.2403,-48.52816 37.36049,-34.8064 62.55922,-46.19121 102.33191,-46.2336 8.28803,-0.008 23.66965,-0.41921 34.18138,-0.91194 27.4546,-1.28692 54.03918,2.63097 125.47595,18.49196 18.28127,4.05896 41.83917,8.61128 52.3509,10.11626 10.51173,1.50496 19.31957,2.92783 19.573,3.16191 1.39694,1.29036 -21.42581,6.15926 -34.77831,7.41945 -32.21257,3.04021 -76.905,-4.03326 -135.19965,-21.39804 -40.46086,-12.05245 -41.54204,-12.28215 -52.84424,-11.22674 -11.82517,1.10426 -34.6642,7.92382 -46.87175,13.99554 -13.8673,6.89726 -30.87459,20.96471 -49.62143,41.044 -21.62428,23.16125 -34.90407,33.49425 -56.74229,44.15123 -25.09722,12.24737 -40.1264,15.77487 -67.30829,15.79796 -20.29095,0.0173 -23.73789,-0.42793 -36.05114,-4.65581 -16.39427,-5.62913 -31.19519,-14.80364 -44.32062,-27.47262 -9.46107,-9.13204 -9.71599,-9.2583 -8.91484,-4.41506 0.45361,2.74219 2.79263,11.51163 5.19783,19.48765 8.32625,27.61112 11.4327,52.06605 10.5079,82.72124 -0.66897,22.17486 -1.63665,30.50836 -5.05719,43.55231 -8.40332,32.04536 -18.35242,48.21815 -58.96041,95.84334 -26.62583,31.22687 -38.56206,47.83264 -52.52016,73.06637 -12.62391,22.82179 -14.79729,31.7706 -14.79687,60.92599 4.1e-4,30.64401 2.99678,41.89709 23.01965,86.45239 26.65133,59.30502 36.41631,103.26322 36.35778,163.66856 -0.0505,52.14445 -5.63331,81.65948 -27.18964,143.74632 -14.76671,42.5312 -20.08736,54.7781 -20.04097,46.1295 z M 109.7891,945.2047 C 129.24944,887.05653 135.39833,849.23123 133.56081,798.97121 131.58963,745.05536 120.18655,698.4909 96.72842,648.56626 79.46562,611.82678 74.23528,591.78452 74.02398,561.5643 c -0.15206,-21.74308 -1.84248,-19.75599 -4.65969,5.47742 -3.24898,29.10038 0.0266,44.37265 22.93639,106.94038 28.65796,78.26622 33.60399,167.07782 14.25604,255.9837 -2.32328,10.6757 -5.67299,26.5151 -7.44379,35.1987 -5.69081,27.9064 -4.76197,26.1699 10.67617,-19.9598 z M 90.83841,496.08389 c 6.65481,-12.97859 25.24953,-39.28611 41.11689,-58.1715 8.6381,-10.2811 21.3694,-25.42374 28.29179,-33.65031 32.29239,-38.37633 43.29911,-66.51856 44.85348,-114.68235 0.90908,-28.16888 -1.30161,-48.9766 -7.76809,-73.1161 l -3.11639,-11.63353 -0.15988,39.05543 c -0.1745,42.64382 -2.17708,61.08626 -9.2849,85.50756 -7.37992,25.35608 -13.62387,35.69987 -51.80122,85.81432 -17.46495,22.92582 -29.19915,42.45574 -37.61912,62.61177 -7.92935,18.98175 -10.1617,25.32792 -8.9094,25.32792 0.42633,0 2.40491,-3.17844 4.39684,-7.06321 z m 22.5566,-142.51077 c 1.44338,-10.51173 4.14603,-25.70659 6.00592,-33.76633 1.85988,-8.05976 3.12047,-14.85737 2.80132,-15.10581 -0.31916,-0.24844 -3.75087,-0.12016 -7.626,0.28507 -6.63874,0.69422 -7.15866,1.13479 -9.00101,7.62711 -2.9155,10.27409 -2.7806,60.78717 0.20039,75.02959 l 2.43493,11.63353 1.28009,-13.29547 c 0.70405,-7.3125 2.46101,-21.89597 3.90436,-32.40769 z m 23.86109,-58.88763 c 5.87166,-3.06876 21.75936,-17.10387 21.75936,-19.2221 0,-1.36131 -20.73005,3.32287 -33.55012,7.58101 -11.95916,3.9722 -24.84551,2.44977 -32.75325,-3.86955 -3.2949,-2.63307 -8.46585,-9.21976 -11.491,-14.63708 l -5.50027,-9.84968 1.04562,10.68002 c 1.49813,15.3019 7.2856,25.57358 17.43363,30.94142 11.63431,6.15402 29.46022,5.48164 43.05603,-1.62404 z m -21.64407,-27.1595 c 3.09298,-7.97491 8.52449,-19.6316 12.07003,-25.90375 4.15875,-7.35698 5.53242,-11.05319 3.87087,-10.41558 -9.48995,3.64162 -22.09399,6.24034 -32.6009,6.72168 -11.95727,0.54778 -12.33156,0.69868 -16.74376,6.75079 l -4.51309,6.19047 4.00554,7.90459 c 7.20282,14.21405 17.12459,23.14878 25.79481,23.22867 1.60362,0.015 4.49897,-5.1495 8.1165,-14.47687 z m 7.99159,12.08896 8.40171,-2.49505 5.37894,-13.7088 c 2.95843,-7.53984 10.15151,-22.939 15.98464,-34.22035 10.2993,-19.919 10.43408,-20.33994 4.66558,-14.57145 -3.26704,3.26706 -8.78963,7.54164 -12.27238,9.49904 -4.5334,2.54793 -8.28856,6.97808 -13.21862,15.5947 -6.64256,11.60969 -18.40022,37.7233 -18.40022,40.86661 0,1.93401 -0.4579,1.98071 9.46035,-0.9647 z m 30.82856,-7.53652 c 4.30798,-1.21293 6.4551,-2.87732 6.98659,-5.41586 0.422,-2.01564 3.36809,-17.12647 6.54685,-33.57961 3.17876,-16.45314 6.26936,-31.41054 6.86801,-33.23866 0.59863,-1.82813 -1.5997,0.78942 -4.88514,5.81676 -6.84201,10.46955 -23.63844,43.96256 -29.89957,59.62137 l -4.23611,10.59435 6.20005,-1.02365 c 3.41002,-0.56302 8.99872,-1.81163 12.41932,-2.7747 z m 25.36026,-20.86893 c 8.75622,-14.94136 13.12834,-43.63216 9.34387,-61.31651 -1.8252,-8.52894 -6.1911,-7.20528 -9.22056,2.79554 -2.14953,7.09602 -10.27748,45.88875 -15.06677,71.91014 l -0.90642,4.92477 5.92283,-5.74062 c 3.25754,-3.15735 7.72472,-8.81534 9.92705,-12.57332 z M 83.19388,238.71944 c 7.72606,-10.91662 29.38552,-25.71009 73.74417,-50.36741 9.36914,-5.20797 17.03481,-10.17479 17.03481,-11.0374 0,-5.10248 -31.36521,2.09793 -50.85625,11.6749 -23.68411,11.63726 -42.95223,32.99074 -46.16073,51.15665 -1.2636,7.15424 0.44086,6.7644 6.238,-1.42674 z m 38.04597,-7.33878 c 19.37643,-5.605 39.29924,-20.75986 51.91147,-39.48793 3.19403,-4.74286 5.80734,-9.16167 5.80734,-9.81958 0,-0.6579 -5.74412,2.92503 -12.76471,7.96207 -7.02059,5.03704 -24.03463,14.70811 -37.80898,21.49125 -13.77435,6.78317 -28.03575,15.00818 -31.692,18.2778 l -6.64773,5.94478 11.63353,-1.03759 c 6.39844,-0.57069 15.20094,-2.06954 19.56108,-3.3308 z m -46.87372,-0.84907 c 1.76803,-0.94622 3.20575,-2.62892 3.19495,-3.73934 -0.01,-1.11043 -5.03674,-6.13224 -11.16869,-11.15959 -6.13199,-5.02734 -12.81683,-10.89246 -14.85521,-13.03359 -4.87272,-5.11836 -8.99154,-17.8382 -9.23483,-28.51929 -0.1803,-7.91567 -0.3574,-8.27365 -2.32387,-4.69754 -4.28345,7.78968 -6.02254,20.97536 -3.92159,29.73312 3.46302,14.43545 15.21059,27.65634 28.0163,31.52998 6.07131,1.83653 6.66098,1.83002 10.29294,-0.11368 z m 9.81762,-13.99562 c 4.62499,-7.48338 18.58555,-19.96772 29.10331,-26.02585 12.24492,-7.05297 31.83767,-14.27348 44.90608,-16.54925 l 11.46676,-1.99685 -14.87834,-3.87978 c -33.76017,-8.80351 -49.21959,-11.26327 -71.38406,-11.35793 -26.2318,-0.11202 -37.23948,2.94074 -37.61667,10.43227 -1.02821,20.4214 3.09186,29.45151 20.16639,44.19941 6.85546,5.92132 12.96438,10.80122 13.57539,10.84423 0.61099,0.043 2.7085,-2.50681 4.66114,-5.66625 z m 225.73535,1.65949 c 36.19108,-7.61303 61.07428,-22.94006 96.56583,-59.48065 28.85121,-29.70397 40.68389,-37.86024 69.50465,-47.9096 l 14.58157,-5.08435 -12.5061,0.89027 c -15.53251,1.10573 -35.19073,7.39786 -49.62042,15.88234 -6.0492,3.55686 -21.84265,16.35883 -35.09657,28.44883 -27.26873,24.87407 -41.30705,34.7455 -62.13923,43.69491 -21.95293,9.43089 -36.80197,12.68579 -57.87322,12.68579 -23.25731,0 -36.99894,-3.18942 -57.03373,-13.2375 -13.19648,-6.61845 -15.31527,-7.29929 -12.12509,-3.89627 9.97274,10.6381 33.96542,23.71574 51.2308,27.92425 12.34352,3.00878 40.39744,3.05098 54.51151,0.0819 z M 150.7058,196.46444 c 0,-0.45703 -3.73935,1.0639 -8.30967,3.37986 -4.57032,2.31595 -8.30966,4.58476 -8.30966,5.04179 0,0.45703 3.73934,-1.06391 8.30966,-3.37986 4.57032,-2.31595 8.30967,-4.58476 8.30967,-5.04179 z m 5.86074,-3.77787 c -0.51169,-0.5117 -1.85273,-10e-4 -2.98006,1.13473 -1.62915,1.64136 -1.43824,1.83225 0.93033,0.93035 1.63903,-0.6241 2.5614,-1.55339 2.04973,-2.06508 z m 117.93078,-3.46365 c 4.40817,-1.94995 7.69679,-3.86345 7.30803,-4.25223 -2.95315,-2.95315 -79.13456,-13.71244 -83.96547,-11.85864 -2.48753,0.95455 -2.47521,1.3058 0.14742,4.20376 1.57395,1.7392 6.72386,4.96352 11.44427,7.16516 7.50452,3.5002 12.90872,5.22507 26.8638,8.57425 7.88809,1.89311 30.3535,-0.36056 38.20196,-3.8323 z m 21.19092,-19.41634 c 24.67491,-29.84084 26.75272,-42.70164 10.18488,-63.04041 -7.97718,-9.79281 -8.3619,-9.95902 -17.30282,-7.47518 -4.72296,1.31206 -6.32575,2.87731 -8.07402,7.88491 -9.07294,25.9877 -32.7441,51.332 -56.2916,60.27046 l -7.43067,2.82063 18.90131,2.87581 c 10.39571,1.58169 25.2582,4.23417 33.02775,5.89439 7.76954,1.66022 14.67778,3.09469 15.35164,3.18769 0.67387,0.0931 5.90896,-5.49521 11.63353,-12.4183 z m 13.42651,4.05205 c 26.97306,-18.45044 33.86666,-45.1066 16.42137,-63.4982 -4.29758,-4.5307 -19.93429,-13.61522 -21.2208,-12.32872 -0.34088,0.34088 1.63086,3.35019 4.38164,6.68735 2.75077,3.33718 6.54173,9.54974 8.42434,13.80568 5.94337,13.436 1.25085,28.84947 -14.72388,48.36326 -14.02019,17.12627 -13.47831,15.84866 -5.53293,13.04536 3.82734,-1.35036 9.33995,-4.08399 12.25026,-6.07473 z m -116.74811,3.33935 c 2.67088,-4.9906 -0.32443,-10.74657 -6.20903,-11.93171 -3.24674,-0.65389 -5.35025,-0.1082 -6.78347,1.75988 -2.63187,3.43033 -2.67225,9.12244 -0.0831,11.7116 3.31073,3.31073 10.96188,2.40973 13.07559,-1.53977 z m -16.73185,-9.59977 c 0,-0.82519 -4.14622,-4.25244 -9.2138,-7.61611 -38.4924,-25.5498 -88.82787,-29.42571 -112.52278,-8.66446 -7.8896,6.9128 -7.8896,8.33417 0,5.02818 15.45132,-6.47459 50.76378,-3.86552 93.48372,6.90708 23.98929,6.04934 28.25286,6.70509 28.25286,4.34531 z m 52.49816,-5.18673 c 16.06595,-7.62428 36.05646,-27.7379 44.53109,-44.8054 3.39649,-6.84037 5.43093,-12.68521 4.52096,-12.98853 -2.9922,-0.99739 -19.10865,10.63388 -28.56501,20.61544 -15.06837,15.90521 -28.13387,27.27917 -41.40846,36.04748 l -12.4645,8.23321 10.94983,-0.82563 c 7.66118,-0.57767 14.39957,-2.46275 22.43609,-6.27657 z m -6.47334,-20.87026 c 30.48273,-26.19187 48.82984,-38.93756 62.83183,-43.64918 9.92478,-3.33964 9.87085,-4.11086 -0.41172,-5.88728 -22.27018,-3.84741 -59.60023,19.05132 -79.13766,48.54406 -8.01481,12.09874 -13.38397,23.56391 -11.03502,23.56391 0.81581,0 13.30447,-10.15718 27.75257,-22.57151 z m -31.20793,-0.69555 c 6.00381,-56.77692 13.49272,-84.72043 26.39,-98.46953 5.74642,-6.12593 1.68593,-6.06424 -8.06972,0.12266 -20.9887,13.31063 -34.52094,53.93754 -29.89056,89.73839 2.07313,16.02889 6.42731,31.26618 8.32027,29.11645 0.67596,-0.76763 2.13846,-9.99619 3.25001,-20.50792 z m 21.21442,-14.12214 c 14.26165,-17.29006 34.90717,-31.18776 53.17243,-35.79346 7.55175,-1.90421 8.9521,-2.94945 11.48917,-8.57569 l 2.88924,-6.40717 -4.77201,-4.98091 c -2.62462,-2.7395 -8.54262,-7.11155 -13.15114,-9.71565 -4.60851,-2.6041 -13.93165,-8.9445 -20.71811,-14.08978 -6.78645,-5.14528 -13.26746,-9.35504 -14.40226,-9.35504 -3.00366,0 -11.73563,11.63012 -16.42901,21.88181 -5.66684,12.37801 -10.18999,32.66518 -14.12557,63.35582 -4.45843,34.76812 -4.39066,35.64459 1.86484,24.11599 2.82753,-5.211 9.20962,-14.40718 14.18242,-20.43592 z m 19.25968,12.12302 c 8.62525,-8.30969 8.60219,-8.29978 -2.94009,1.26258 -14.41453,11.94194 -18.28505,15.68955 -11.18634,10.83116 2.98814,-2.04511 9.34503,-7.4873 14.12643,-12.09374 z m 466.97154,-2.31064 c 9.87007,-1.09382 13.28811,-3.99991 4.70455,-3.99991 -5.22878,0 -39.20105,-6.49864 -60.7948,-11.62957 -14.24531,-3.38486 -38.9544,-8.26137 -63.15346,-12.46377 -16.27727,-2.8267 -64.96806,-5.10828 -56.50573,-2.64778 2.74219,0.79733 13.5863,4.10397 24.09803,7.34808 43.96964,13.56988 83.98734,22.4027 110.51856,24.39395 16.38536,1.22978 22.30276,1.08577 41.13285,-1.001 z M 281.42504,86.76118 c 1.34586,-3.50725 -0.90052,-5.40079 -2.81529,-2.37309 -2.03455,3.21708 -1.99375,4.93767 0.117,4.93767 0.94277,0 2.15696,-1.15407 2.69822,-2.56458 z M 280.3366,65.5531 c 0,-7.85862 -8.24192,-19.94577 -17.16704,-25.17624 -8.00164,-4.68926 -26.29964,-8.50857 -30.22893,-6.30963 -2.52137,1.41103 12.11748,13.23203 33.68502,27.20089 5.7129,3.70015 10.38709,7.41352 10.38709,8.25195 0,0.83843 0.74787,1.52442 1.66193,1.52442 0.91406,0 1.66193,-2.47113 1.66193,-5.49139 z"
     id="path156"
     inkscape:label="ORILLA" />
</svg>
