<?xml version="1.0" encoding="UTF-8" standalone="no"?>
<!-- Created with Inkscape (http://www.inkscape.org/) -->

<svg
   width="210mm"
   height="210mm"
   viewBox="0 0 210 210"
   version="1.1"
   id="svg1"
   inkscape:version="1.4.2 (f4327f4, 2025-05-13)"
   sodipodi:docname="pastel.svg"
   inkscape:export-filename="pastel.png"
   inkscape:export-xdpi="96"
   inkscape:export-ydpi="96"
   xmlns:inkscape="http://www.inkscape.org/namespaces/inkscape"
   xmlns:sodipodi="http://sodipodi.sourceforge.net/DTD/sodipodi-0.dtd"
   xmlns="http://www.w3.org/2000/svg"
   xmlns:svg="http://www.w3.org/2000/svg">
  <sodipodi:namedview
     id="namedview1"
     pagecolor="#ffffff"
     bordercolor="#000000"
     borderopacity="0.25"
     inkscape:showpageshadow="2"
     inkscape:pageopacity="0.0"
     inkscape:pagecheckerboard="0"
     inkscape:deskcolor="#d1d1d1"
     inkscape:document-units="mm"
     inkscape:zoom="0.34876894"
     inkscape:cx="754.08091"
     inkscape:cy="454.45561"
     inkscape:window-width="1920"
     inkscape:window-height="1001"
     inkscape:window-x="-9"
     inkscape:window-y="-9"
     inkscape:window-maximized="1"
     inkscape:current-layer="layer1" />
  <defs
     id="defs1" />
  <g
     inkscape:label="Capa 1"
     inkscape:groupmode="layer"
     id="layer1">
    <path
       style="fill:#85132a;stroke-width:0.740704;fill-opacity:1"
       d="m 86.996074,177.14204 c -42.19089,-2.34431 -51.682676,-3.92562 -61.701444,-10.27934 -8.817383,-5.59182 -8.343649,-12.43537 1.175265,-16.97833 l 4.751394,-2.26763 0.47687,-6.12593 c 0.844418,-10.84779 0.556292,-20.78447 -0.6489,-22.37785 -1.822093,-2.40902 -1.432428,-12.57828 0.746267,-19.475006 2.931345,-9.2794 5.697995,-11.39636 20.017043,-15.31648 4.073883,-1.11531 7.823695,-2.1591 8.332927,-2.319538 1.141922,-0.359754 1.1791,-4.051465 0.135217,-13.413875 -0.750243,-6.728188 -0.712281,-7.175204 0.740695,-8.721836 1.908179,-2.031152 1.916241,-2.727786 0.05011,-4.325649 -0.814799,-0.697634 -1.48142,-2.152705 -1.48142,-3.233492 0,-2.761243 3.170648,-12.086375 4.116268,-12.106316 0.924624,-0.0196 3.637131,9.897378 3.439681,12.575473 -0.07503,1.01847 -0.805924,2.309066 -1.624111,2.867987 -1.975142,1.349285 -1.888301,2.897714 0.178889,3.191314 1.546621,0.21965 1.707957,0.743291 2.241041,7.273394 0.315953,3.870182 0.821966,8.869944 1.124453,11.110579 0.600609,4.448786 0.456658,4.375263 6.523265,3.332135 l 2.2965,-0.394877 0.41455,-13.42023 c 0.41341,-13.382983 0.54865,-14.029248 3.12451,-14.930642 0.39877,-0.139556 0.14866,-1.133191 -0.55553,-2.208101 -0.7043,-1.074905 -1.28061,-2.882729 -1.28072,-4.017379 -1.7e-4,-2.295964 3.03979,-11.321813 3.81324,-11.321813 0.6512,0 3.59397,9.421015 3.59397,11.505784 0,0.894918 -0.63115,2.429504 -1.40256,3.410182 -1.37941,1.753642 -1.37795,1.813314 0.0879,3.618235 1.38339,1.703379 1.47081,2.686449 1.21737,13.686478 l -0.27295,11.851286 3.8887,0.223877 3.88869,0.223877 V 62.9048 c 0,-15.494629 0.0386,-15.899148 1.61672,-16.946973 l 1.6167,-1.073452 -1.98091,-2.597105 c -2.95067,-3.868534 -3.06673,-6.143003 -0.61758,-12.102554 1.17196,-2.851716 2.39894,-5.184936 2.72662,-5.184936 1.00393,0 4.786216,10.066287 4.786216,12.73824 0,1.693519 -0.60414,3.117681 -1.85177,4.365319 -1.018456,1.018469 -1.851766,2.177071 -1.851766,2.574675 0,0.397604 0.83331,1.102592 1.851766,1.566637 1.01847,0.464051 1.85779,1.373527 1.86518,2.021066 0.0843,7.412155 0.91636,28.810292 1.14898,29.550207 0.208,0.661576 1.417,0.895408 3.82982,0.740704 l 3.5259,-0.226061 0.19849,-14.443752 c 0.19149,-13.93566 0.25644,-14.48761 1.84222,-15.690478 l 1.64368,-1.24672 -1.78049,-1.895241 c -1.07518,-1.144501 -1.78046,-2.78843 -1.78046,-4.150053 0,-2.733884 3.92341,-11.221812 5.01922,-10.858623 0.43062,0.14272 1.40846,3.003287 2.17298,6.356816 l 1.39005,6.097321 -2.07674,2.167654 c -2.23382,2.331599 -2.23466,2.31231 0.15313,3.553132 1.5763,0.81911 1.59186,1.023276 1.18691,15.572276 l -0.41032,14.742293 2.14625,0.429018 c 3.34209,0.668048 9.83204,0.81596 10.41067,0.237259 0.28695,-0.286889 0.43605,-5.579444 0.33146,-11.761237 -0.1842,-10.875078 -0.13661,-11.280095 1.46454,-12.487809 l 1.65471,-1.24819 -1.68184,-2.361977 c -1.27016,-1.783773 -1.5677,-2.939962 -1.21557,-4.723055 0.60657,-3.071519 3.52798,-10.138486 4.19107,-10.138486 0.91054,0 3.64351,8.40836 3.65292,11.238923 0,0.681677 -0.82913,2.229722 -1.8476,3.440101 -1.01846,1.210388 -1.85177,2.410817 -1.85177,2.667634 0,0.256799 0.83331,0.783755 1.85177,1.170976 l 1.85177,0.704039 v 12.196253 c 0,8.950963 0.24636,12.352039 0.92588,12.781714 1.32031,0.834871 13.37749,3.222079 13.858,2.743759 0.50257,-0.500238 2.13737,-14.361182 2.20322,-18.680768 0.0392,-2.571187 0.34666,-3.295145 1.53052,-3.604738 1.78525,-0.466844 1.85496,-1.4603 0.31873,-4.539737 -0.66419,-1.331411 -0.95167,-2.995286 -0.67057,-3.880963 1.00315,-3.160685 4.18329,-9.570845 4.74806,-9.570845 0.72606,0 2.27013,7.482871 2.27013,11.001199 0,1.659024 -0.58717,3.231386 -1.61549,4.32594 l -1.6154,1.719569 1.65905,1.545638 c 1.20888,1.126257 1.5488,2.079472 1.25275,3.513107 -0.45067,2.182265 -1.90146,17.33934 -1.90244,19.875268 -4.5e-4,1.22867 0.93988,2.04287 3.95219,3.42193 2.17396,0.9953 5.16805,3.02492 6.65339,4.51026 4.67222,4.67226 5.21174,6.38083 5.54847,17.571296 0.27183,9.03908 0.14193,10.4442 -1.25936,13.61203 -1.334,3.01564 -1.56258,4.97221 -1.56258,13.37286 v 9.84038 l 4.97723,2.47228 c 6.17912,3.06928 8.6624,6.28694 8.10955,10.50765 -1.11121,8.48333 -13.8849,12.82531 -48.18087,16.37745 -11.80382,1.22255 -35.13219,1.36486 -53.790536,0.32811 z m 63.670646,-2.85387 c 16.60469,-2.22816 28.00289,-5.1663 32.45882,-8.36699 4.21579,-3.02822 5.4581,-6.18428 3.56916,-9.06724 -1.73651,-2.65024 -6.99574,-6.30461 -9.07334,-6.30461 -1.63097,0 -1.74066,0.2762 -1.74066,4.38365 0,2.41101 -0.20828,4.92635 -0.46279,5.58965 -0.71228,1.85613 -7.00819,4.7046 -12.23749,5.53659 -30.7395,4.89076 -55.54072,5.1676 -99.107595,1.10628 -20.03692,-1.86784 -26.865891,-3.45642 -30.963066,-7.20276 -1.367368,-1.2503 -1.66658,-2.30754 -1.66658,-5.88891 0,-4.18558 -0.06859,-4.34385 -1.66658,-3.84973 -3.477559,1.07525 -7.244139,3.37414 -8.387574,5.11924 -3.525066,5.37995 4.434797,12.17312 18.644636,15.91178 5.57644,1.46719 12.447488,2.08964 48.814183,4.42208 17.979966,1.15318 47.880506,0.48133 61.818876,-1.38903 z m -21.8208,-5.96547 c 15.94257,-1.03505 35.64881,-3.65498 40.22821,-5.34831 4.68963,-1.73409 5.32515,-2.96701 5.32515,-10.33041 0,-4.68462 -0.13214,-5.15959 -1.29623,-4.6625 -7.26083,3.10019 -10.74791,3.61773 -19.44351,4.331 -61.067315,5.00912 -25.23466,1.18452 -12.64204,0.70161 10.64807,-0.40835 -20.23455,3.47002 -37.72592,2.36736 -9.166236,-0.57784 -23.165546,-1.40414 -31.109626,-1.83623 -17.378494,-0.94523 -26.267433,-2.6079 -37.961123,-7.10061 -1.163311,-0.44693 -1.296232,0.0696 -1.296232,5.03664 0,6.93274 1.321399,8.94192 6.900107,10.49144 9.285098,2.57901 36.569768,5.23014 67.911104,6.59861 2.64803,0.11562 5.98119,0.26929 7.40707,0.34148 1.42585,0.0722 7.59223,-0.19333 13.70304,-0.59008 z m 8.71817,-15.61558 c 4.38757,-0.83662 12.24609,-1.78014 17.46332,-2.09672 7.96857,-0.48352 10.18394,-0.89518 13.85013,-2.57362 4.87416,-2.23147 5.49411,-2.88767 5.5104,-5.83286 l 0.0112,-2.04942 -3.51835,1.75407 c -4.9059,2.44582 -8.78356,3.27165 -19.44972,4.14221 -5.08896,0.41536 -10.97164,1.08299 -13.0727,1.48363 -9.84436,1.87717 -19.48236,2.27297 -38.02975,1.56174 -31.203117,-1.19655 -50.121658,-3.73342 -61.349312,-8.22664 -2.984368,-1.1943 -5.567566,-2.17146 -5.740492,-2.17146 -0.827453,0 -0.181688,4.47111 0.78546,5.43825 0.60492,0.60492 3.188145,1.79317 5.740464,2.64057 9.651051,3.2042 17.825638,4.54376 32.417074,5.31217 7.94408,0.41834 20.77678,1.16241 28.517156,1.65348 17.82404,1.13082 26.83107,0.87785 36.86498,-1.0354 z m 0.41234,-6.665 c 5.57034,-0.84941 10.25286,-1.66887 10.40575,-1.82103 0.15285,-0.15215 -0.264,-1.63049 -0.92589,-3.28519 -0.66211,-1.6547 -1.20379,-3.35725 -1.20379,-3.78346 0,-1.53911 3.95633,-0.26718 5.45973,1.75526 1.27585,1.71633 1.38111,2.3036 0.62877,3.50829 -0.49692,0.79579 -0.90357,1.5436 -0.90357,1.6618 0,0.83222 12.98499,-1.07465 16.2955,-2.39303 6.14074,-2.44547 6.66635,-3.14439 6.66635,-8.86477 0,-4.70374 -0.0868,-4.94053 -2.08967,-5.69651 -1.5929,-0.60123 -2.50218,-1.82859 -3.82464,-5.16215 -2.17254,-5.47644 -2.75187,-6.22515 -4.81671,-6.22515 -2.58922,0 -5.32717,2.64468 -6.718,6.48914 -1.57109,4.34291 -4.10876,6.87835 -6.30865,6.30306 -0.87827,-0.22967 -2.56313,-1.94133 -3.74419,-3.80369 -3.46266,-5.46008 -4.26164,-5.48551 -7.37504,-0.23474 -1.74614,2.9449 -3.40141,2.86873 -5.12155,-0.23566 -2.06478,-3.72647 -3.73693,-2.92137 -6.69468,3.22337 -2.52233,5.24013 -4.70439,7.43008 -7.46362,7.4906 -2.13107,0.0468 -5.25642,-3.10667 -7.01094,-7.07394 -2.7183,-6.14661 -4.14807,-6.12909 -7.1973,0.0882 -1.60088,3.26416 -2.33799,4.0492 -3.802,4.0492 -2.261996,0 -2.691836,-0.68551 -4.144146,-6.60889 -1.52067,-6.20234 -3.03081,-7.23519 -5.75992,-3.93949 -2.43244,2.93742 -3.28803,2.99696 -5.2272,0.36368 -1.24001,-1.68389 -1.73214,-1.89515 -2.83941,-1.2189 -0.73669,0.44992 -1.83939,2.11669 -2.45047,3.70395 -1.53688,3.99197 -2.10809,4.73683 -3.63245,4.73683 -1.94564,0 -3.59206,-2.18353 -4.41792,-5.85917 -1.2782,-5.68884 -3.595559,-5.61368 -6.509463,0.21114 -2.530174,5.05774 -4.541179,7.12944 -6.920627,7.12944 -3.282796,0 -4.865111,-2.2514 -8.459325,-12.03646 -1.496678,-4.07456 -2.921071,-4.46693 -4.722644,-1.30092 -1.310005,2.30219 -3.328736,2.90369 -4.366069,1.30092 -0.329587,-0.50924 -0.943241,-2.09249 -1.363672,-3.51835 -0.606263,-2.05603 -1.142707,-2.59247 -2.592464,-2.59247 -3.194611,0 -4.676703,4.38869 -5.03087,14.89704 -0.295041,8.75406 -0.259795,9.00127 1.450233,10.20486 4.71864,3.32098 21.536256,7.11235 36.565738,8.24341 3.259113,0.24527 6.689223,0.60231 7.622463,0.79342 1.66902,0.34177 1.6775,0.31008 0.51738,-1.93337 -1.39074,-2.68942 -0.90685,-4.77876 1.46706,-6.3342 3.61667,-2.36971 8.6033,1.17658 7.12435,5.06653 -0.39311,1.03388 -1.15192,2.16001 -1.68629,2.50249 -1.78091,1.14141 3.77529,1.54598 22.602756,1.64581 15.26036,0.0809 20.11262,-0.16528 28.5171,-1.44688 z m -23.90795,-1.62885 c -1.55944,-2.38005 -1.77036,-5.23348 -0.40702,-5.50734 0.61108,-0.12276 2.09504,0.56923 3.29772,1.53774 2.1498,1.73125 2.16511,1.7938 0.9088,3.71118 -1.56717,2.39178 -2.36606,2.44612 -3.7995,0.25842 z m 2.55579,-1.93245 c 0,-0.3638 -0.49997,-0.85332 -1.11104,-1.08781 -1.12905,-0.43326 -1.51698,0.35575 -0.61727,1.25546 0.70789,0.70789 1.72831,0.60891 1.72831,-0.16766 z m 12.72932,0.89565 c -1.80057,-0.72033 -2.44729,-3.8414 -1.26838,-6.12116 2.58824,-5.00518 10.01952,-3.6716 10.01952,1.79806 0,3.13998 -5.23907,5.72812 -8.75114,4.3231 z m 4.63725,-1.43239 c 3.31186,-1.27089 2.77595,-6.20885 -0.67387,-6.20885 -3.26784,0 -5.31211,3.67725 -3.21185,5.7775 0.99002,0.99 2.10677,1.11398 3.88572,0.43135 z m -35.921116,-1.09291 c -0.91849,-1.71623 -0.36791,-5.11594 0.82852,-5.11594 1.569016,0 5.134056,2.29857 5.134056,3.31019 0,1.15678 -2.76066,3.35615 -4.212626,3.35615 -0.50612,0 -1.29357,-0.69768 -1.74995,-1.5504 z m 3.740456,-1.51491 c 0,-0.84044 -2.122726,-1.72521 -2.715916,-1.13202 -0.23656,0.23645 -0.2346,0.93865 0.003,1.56043 0.44907,1.1703 2.711996,0.81282 2.711996,-0.42841 z m -33.326382,0.61427 c -2.268504,-1.13097 -3.608576,-4.51325 -2.492661,-6.29133 1.137304,-1.81214 4.496947,-2.86409 6.044747,-1.89268 1.77604,1.11463 2.86603,4.4953 1.92855,5.9815 -1.51487,2.40159 -3.489564,3.19516 -5.480636,2.20251 z m 3.668686,-2.328 c 1.07451,-1.29473 0.41234,-3.80401 -1.163427,-4.40869 -1.590153,-0.6102 -3.992026,0.83339 -3.992026,2.3993 0,2.78624 3.408243,4.11463 5.155453,2.00939 z m -24.111423,0.20333 c -1.144834,-2.21383 -1.137555,-2.41178 0.122619,-3.33317 1.6635,-1.21639 6.704812,-1.28686 7.435878,-0.10395 0.516007,0.83493 -4.398991,5.79073 -5.743039,5.79073 -0.329055,0 -1.145982,-1.05912 -1.815374,-2.3536 z m 3.993733,-0.75736 c 1.295756,-1.29578 1.089824,-2.07398 -0.548845,-2.07398 -1.627834,0 -2.57939,1.11555 -1.895496,2.22212 0.606123,0.98072 1.361237,0.93496 2.444341,-0.14815 z m 110.678016,0.47649 c -2.25789,-1.5815 -2.17729,-5.04951 0.17189,-7.39872 2.11865,-2.11858 3.16572,-2.24695 5.42421,-0.66504 2.40898,1.68732 2.25055,5.67109 -0.30549,7.68165 -2.33751,1.83874 -3.12924,1.89593 -5.29055,0.38211 z m 4.4063,-1.55421 c 1.78539,-1.61577 1.72809,-4.44773 -0.11002,-5.4314 -2.78395,-1.48993 -5.86143,3.47935 -3.57235,5.76841 1.19912,1.19917 2.07315,1.11918 3.68226,-0.33701 z M 38.521867,131.86689 c -1.534919,-2.19141 -1.457064,-4.51538 0.201565,-6.01639 1.88721,-1.7079 3.592367,-1.53122 5.7158,0.59224 2.212681,2.21265 2.276146,3.33655 0.307834,5.44929 -1.946811,2.08966 -4.751786,2.07833 -6.225143,-0.0252 z m 4.341657,-0.28479 c 1.714732,-0.658 1.455161,-3.79078 -0.396187,-4.78159 -1.244329,-0.66595 -1.806332,-0.60055 -2.723817,0.31693 -0.939294,0.93928 -0.995508,1.50829 -0.299829,3.03513 0.889659,1.95258 1.448274,2.18609 3.419833,1.42953 z m 42.69984,13.01553 c 2.03139,-1.08717 1.88413,-4.29545 -0.23376,-5.09522 -3.56303,-1.34541 -6.37998,2.21231 -3.55981,4.49595 1.9738,1.59828 1.93766,1.59257 3.79368,0.59927 z m 65.109296,-4.46313 c -0.87376,-1.63254 -2.19804,-1.91785 -2.19804,-0.47354 0,1.2673 1.54961,2.78588 2.34269,2.29574 0.34324,-0.21215 0.27827,-1.03215 -0.14474,-1.8222 z m -25.36961,-11.43601 c 3.03339,-6.46167 3.50709,-7.22323 5.17538,-8.32052 1.48836,-0.97896 1.78265,-0.9168 3.33316,0.7041 0.93537,0.97783 2.0591,2.40716 2.49722,3.17631 0.72211,1.2677 0.95951,1.10856 2.53914,-1.70207 2.8821,-5.12796 5.91616,-4.87285 9.0227,0.75866 2.75732,4.99857 5.71904,4.55715 7.41555,-1.10524 0.49101,-1.63893 1.96887,-4.12079 3.284,-5.51528 2.03945,-2.16243 2.80755,-2.50113 5.22146,-2.30239 2.68482,0.22105 2.94932,0.4804 5.14775,5.04761 1.27459,2.64802 2.70727,5.23437 3.1837,5.74742 1.36963,1.47509 3.58352,-0.18656 4.46178,-3.34884 0.98336,-3.54086 0.9978,-16.75925 0.0224,-20.27174 -1.04442,-3.759756 -4.63564,-8.058606 -8.73225,-10.452766 -4.77083,-2.78819 -6.06751,-2.69014 -6.06751,0.45879 0,3.12971 -1.41473,4.38765 -4.18824,3.72398 -3.48338,-0.83357 -4.06143,-1.70229 -3.81529,-5.73428 l 0.2262,-3.70344 -5.18496,-1.33992 c -2.8517,-0.73696 -6.10154,-1.34754 -7.22185,-1.35684 -2.01148,-0.0168 -2.03696,0.0423 -2.03696,4.71842 0,5.11775 -0.4059,5.63454 -4.42556,5.63454 -2.48292,0 -2.97756,-1.02002 -2.99282,-6.1714 -0.0168,-5.52165 -0.41671,-5.863893 -7.32751,-6.263955 l -5.99385,-0.346975 v 2.33316 c 0,2.71815 -2.41267,4.2674 -5.45614,3.50354 -1.51311,-0.37977 -1.90485,-0.98698 -2.09155,-3.242 l -0.22984,-2.774715 h -3.7035 c -3.69019,0 -3.70444,0.0092 -3.94897,2.585995 -0.29544,3.11284 -1.25377,3.85525 -4.198796,3.2528 -2.97284,-0.60814 -3.81235,-1.38322 -4.33645,-4.003645 -0.40778,-2.03891 -0.68308,-2.2055 -3.64464,-2.2055 -1.76196,0 -3.60353,0.39998 -4.09241,0.888846 -0.50184,0.501849 -0.88885,2.905979 -0.88885,5.521729 v 4.63287 l -2.71337,0.50904 c -4.08184,0.76576 -5.02833,-0.22732 -5.28524,-5.54549 l -0.22116,-4.579192 -2.74162,0.461831 c -5.52507,0.930721 -5.334059,0.704848 -5.334059,6.308041 v 5.13502 h -3.351497 c -2.916087,0 -3.445364,-0.24686 -4.073883,-1.89998 -0.397307,-1.04499 -0.722387,-3.24941 -0.722387,-4.89869 v -2.99871 l -3.518348,0.52232 c -1.935081,0.28727 -6.684852,1.53306 -10.555043,2.7684 -11.584789,3.69781 -15.237037,8.82202 -16.097804,22.585726 -0.522362,8.35283 0.141375,9.7605 2.464973,5.22829 2.823424,-5.50699 7.851859,-5.60908 8.870351,-0.18006 0.650271,3.46634 1.259362,3.66994 3.185457,1.06478 3.191336,-4.31652 5.874252,-2.52187 8.562459,5.72765 2.215845,6.79987 5.383273,9.3093 7.999785,6.3379 0.627792,-0.71293 2.012264,-3.03418 3.076612,-5.15834 2.055881,-4.10292 4.106414,-5.74842 6.297004,-5.05316 1.45589,0.46209 3.04725,3.35255 3.04725,5.53489 0,0.75047 0.59744,2.10228 1.32761,3.00402 1.25489,1.5497 1.38669,1.56831 2.40621,0.33984 0.59328,-0.71482 1.41244,-2.30108 1.82042,-3.52502 0.88221,-2.6467 4.04986,-5.20394 5.67406,-4.58068 0.63546,0.24386 1.59315,1.26129 2.12816,2.26097 l 0.97275,1.81759 2.42334,-2.6457 c 2.05149,-2.23967 2.65073,-2.52402 3.90474,-1.85288 2.00364,1.0723 2.32634,1.70551 3.75555,7.36862 1.599806,6.33915 3.045506,6.77212 5.278706,1.5809 2.81654,-6.54719 6.18035,-6.73454 9.29521,-0.5177 2.80209,5.59265 3.83136,6.53573 6.85086,6.27717 2.29731,-0.19673 2.77379,-0.62951 4.32066,-3.92464 z M 104.773,110.91032 c -1.01847,-0.14417 -7.018186,-0.63313 -13.332696,-1.08657 -30.511,-2.19099 -47.687262,-5.73845 -51.804426,-10.699326 -1.215298,-1.46433 -0.128778,-1.51181 1.910502,-0.0835 8.618926,6.036936 40.674864,10.262306 78.41108,10.335566 26.98462,0.0524 36.10062,-1.33217 47.23315,-7.17383 4.71072,-2.471876 6.36739,-2.364716 2.79274,0.18066 -3.65012,2.59912 -10.93902,5.20646 -18.91627,6.76664 -5.78016,1.13048 -11.47427,1.51169 -25.92469,1.73559 -10.1847,0.15781 -19.35093,0.16895 -20.36939,0.0249 z m -19.999046,-7.76616 c -2.95531,-2.95532 -0.8272,-6.395156 3.10783,-5.023396 1.62431,0.56624 2.0771,1.18702 2.0771,2.847676 0,1.34146 -0.52768,2.406 -1.43271,2.89036 -1.91125,1.02288 -2.03902,0.99855 -3.75222,-0.71464 z m 3.70354,-1.87501 c 0,-0.62387 -0.52239,-1.334766 -1.16085,-1.579766 -1.39307,-0.53457 -2.91222,0.776216 -2.21223,1.908826 0.75458,1.2209 3.37308,0.96546 3.37308,-0.32906 z m 51.234496,2.72476 c -0.55747,-0.36224 -0.87908,-1.56992 -0.7407,-2.78189 0.20689,-1.811586 0.57455,-2.141736 2.38589,-2.141736 2.64023,0 4.15558,1.988016 2.96413,3.888696 -0.92689,1.47862 -3.15612,1.97914 -4.60932,1.03493 z m 3.20732,-2.34131 c 0,-1.5877 -2.15227,-1.35838 -2.46438,0.26259 -0.19065,0.98988 0.11114,1.29155 1.10091,1.10092 0.74987,-0.14443 1.36347,-0.758 1.36347,-1.36351 z m -22.77669,-2.271296 c -1.62803,-0.94825 -1.67798,-3.89732 -0.093,-5.48247 1.76837,-1.76837 4.19525,-1.11632 5.06279,1.36027 0.63692,1.81829 0.49784,2.31112 -0.99305,3.51835 -1.97914,1.602616 -2.20358,1.636696 -3.9769,0.60385 z m 3.63349,-2.53314 c 0.1271,-0.40739 -0.0714,-1.21924 -0.44106,-1.80413 -0.55711,-0.88133 -0.87217,-0.8975 -1.83973,-0.0945 -1.73601,1.44076 -1.47272,3.15762 0.44106,2.87601 0.8847,-0.13018 1.71258,-0.57001 1.83973,-0.97739 z m -24.507606,0.86944 c -1.63368,-1.19458 -1.03352,-3.82276 1.138396,-4.98514 3.53055,-1.88949 6.70221,2.14353 3.63744,4.62525 -1.97422,1.59863 -2.9783,1.67429 -4.775836,0.35989 z m 3.941526,-1.51187 c 0.63308,-0.76283 0.60363,-1.20938 -0.11926,-1.80939 -1.28039,-1.06262 -3.104436,0.12055 -2.52279,1.63636 0.55761,1.45308 1.52705,1.51658 2.6421,0.17304 z m -53.841775,0.12394 c -2.140006,-2.13999 -0.497782,-5.7775 2.608337,-5.7775 2.57298,0 3.848299,3.20678 2.060836,5.18193 -1.517841,1.67718 -3.353428,1.91132 -4.669173,0.59557 z m 3.421709,-2.68752 c 0.153693,-1.04549 -0.155093,-1.60857 -0.882156,-1.60857 -1.440379,0 -2.197844,1.24077 -1.641888,2.68953 0.603184,1.57185 2.236645,0.87229 2.524044,-1.08096 z m 94.052866,1.56157 c -2.84089,-0.68136 -2.0727,-6.13296 0.86427,-6.13296 1.77976,0 3.87291,2.0567 3.58212,3.51975 -0.29445,1.4815 -2.86528,2.99242 -4.44639,2.61321 z m 2.69098,-2.34551 c 0.67331,-1.08943 -1.73133,-2.67095 -2.65565,-1.74662 -0.43605,0.4361 -0.56894,1.15527 -0.29523,1.59815 0.59996,0.97076 2.38706,1.06068 2.95088,0.14846 z m 11.27399,-7.49098 c 0.46878,-4.277573 1.08741,-10.693932 1.3749,-14.258575 l 0.52255,-6.481171 h -2.21234 -2.21226 l -0.89137,8.703286 c -0.49019,4.786809 -1.19808,10.7555 -1.57302,13.26377 -0.84428,5.64769 -0.38163,7.07437 2.19692,6.77534 1.89539,-0.21979 1.96294,-0.41314 2.79462,-8.00265 z m -94.551465,6.07378 c 0,-0.77897 -1.608769,-2.37025 -2.396329,-2.37025 -0.340225,0 -0.261755,0.66663 0.17413,1.48141 0.782884,1.46284 2.222115,2.03854 2.222115,0.88884 z m 71.677155,-16.628831 0.19904,-16.851042 h -2.69282 -2.69292 l 0.54034,16.480691 c 0.29717,9.064382 0.70086,16.749742 0.89708,17.078582 0.19624,0.32884 1.07535,0.49549 1.95353,0.37035 1.57489,-0.22443 1.59942,-0.45756 1.79577,-17.078581 z M 68.478451,88.689524 c 0,-1.10105 -1.051806,-2.99389 -2.572447,-4.62941 -1.979258,-2.128781 -2.577039,-2.456641 -2.592464,-1.421831 -0.0252,1.681071 1.189654,4.079151 3.164461,6.247301 1.902691,2.08899 2.00045,2.0794 2.00045,-0.19605 z m 15.374973,0.93677 c 0.8618,-1.07501 2.03849,-30.791055 1.31011,-33.085952 -0.34154,-1.076098 -1.11289,-1.542024 -2.55293,-1.542024 -2.03598,0 -2.06988,0.07556 -2.54255,5.667049 -0.62846,7.434666 -0.61774,28.760487 0.014,29.392997 0.80928,0.80931 2.97429,0.56122 3.77058,-0.43207 z M 117.36499,68.701366 c 0.20381,-8.962533 0.20381,-16.51986 0,-16.794061 -0.2038,-0.274212 -1.28699,-0.318674 -2.4073,-0.09882 l -2.03693,0.399723 v 16.085717 c 0,8.847148 0.23628,16.321989 0.52505,16.610769 0.28877,0.28877 1.20539,0.42765 2.03693,0.30862 1.45664,-0.20851 1.52543,-0.81197 1.88225,-16.511934 z M 99.171114,82.34995 c -1.72646,-1.806662 -2.22668,-2.027074 -2.42335,-1.067794 -0.43448,2.119268 0.51257,3.344378 2.58527,3.344378 h 2.013606 z M 67.737727,81.720543 c 0,-0.97165 -3.695277,-5.241772 -4.536139,-5.241772 -0.796267,0 0.447334,2.67325 2.153667,4.629409 1.226888,1.406555 2.382472,1.703569 2.382472,0.612363 z m 34.072453,-1.763295 c 0,-1.757953 -4.541706,-6.837635 -5.371536,-6.007809 -1.08733,1.087335 3.0017,7.714268 4.759926,7.714268 0.33639,0 0.61161,-0.767904 0.61161,-1.706459 z M 66.997031,75.749755 c 0,-1.664707 -4.059466,-6.568989 -4.813375,-5.815085 -0.607747,0.607733 0.787587,3.39457 2.812925,5.61822 1.854484,2.036043 2.00045,2.050405 2.00045,0.196865 z m 31.923473,-5.465347 c -1.96524,-1.965223 -2.29527,-2.090121 -2.29527,-0.868625 0,0.784651 0.91664,2.386013 2.03695,3.558579 1.697236,1.776388 2.080016,1.921249 2.295266,0.868617 0.14194,-0.69482 -0.77457,-2.296179 -2.036946,-3.558571 z M 66.997031,70.146 c 0,-0.992498 -2.208622,-4.535988 -3.627696,-5.82023 -1.535059,-1.389209 -1.557231,-1.387356 -1.557231,0.130094 0,1.598591 3.327616,6.09727 4.510076,6.09727 0.37116,0 0.674851,-0.1832 0.674851,-0.407137 z m 34.813149,-1.594537 c 0,-0.74335 -4.613626,-5.405378 -5.349256,-5.405378 -0.96258,0 1.49598,4.283402 2.94196,5.1256 1.537716,0.895638 2.407296,0.996701 2.407296,0.279784 z m -35.553845,-4.99131 c 0,-0.179645 -0.333338,-0.532639 -0.740724,-0.784422 -0.407385,-0.251788 -0.740696,-0.104785 -0.740696,0.326637 0,0.431433 0.333311,0.784421 0.740696,0.784421 0.407386,0 0.740724,-0.146974 0.740724,-0.326636 z m 34.813125,-1.190304 c 0,-1.418881 -3.336686,-5.074092 -4.679306,-5.126 -0.97182,-0.03754 0.26932,3.160975 1.93075,4.976355 1.894616,2.069996 2.748556,2.11649 2.748556,0.149634 z m 0,-5.03987 c 0,-1.041921 -3.263226,-5.527653 -4.259036,-5.854622 -1.57263,-0.516363 -1.0239,1.811429 0.99172,4.206841 1.86689,2.218686 3.267316,2.924956 3.267316,1.647781 z m 62.05029,-4.570056 c -0.53879,-5.607078 -1.22062,-5.860801 -3.17563,-1.181729 -1.12521,2.692983 -1.11194,2.814896 0.34666,3.196345 0.83412,0.21811 1.51653,0.69101 1.51653,1.050882 0,0.359872 0.37567,0.654317 0.8349,0.654317 0.55607,0 0.71561,-1.242451 0.47754,-3.719815 z m -97.807411,-2.75569 c -0.506965,-4.49794 -1.589174,-5.392408 -3.06687,-2.534858 -0.645737,1.248741 -1.174089,3.097992 -1.174089,4.109449 0,1.578347 0.326787,1.829713 2.305485,1.773454 2.281662,-0.06489 2.30165,-0.09944 1.935474,-3.348045 z m 35.757121,0.549853 c 0,-1.876448 -0.28804,-2.222116 -1.851766,-2.222116 -2.2706,0 -2.31663,0.520738 -0.24132,2.729909 2.042306,2.173908 2.093006,2.161607 2.093006,-0.507793 z m 34.56095,-1.666585 c 1.3037,3.213074 2.38071,-2.139446 1.26675,-6.295994 -0.66945,-2.498008 -1.49326,-2.031681 -2.89503,1.638655 -1.33025,3.483337 -0.9753,6.939154 0.49529,4.821752 0.57294,-0.824878 0.8487,-0.8649 1.13299,-0.164413 z M 85.101054,46.325837 c 0.47306,-1.232783 -1.01015,-6.88233 -1.80686,-6.88233 -0.89969,0 -2.22377,3.708365 -2.22377,6.228134 0,2.201077 0.18645,2.419283 1.80202,2.110423 0.99108,-0.189471 1.99398,-0.844759 2.22861,-1.456227 z m 30.594336,-4.104684 c 0.17133,0.509235 0.61718,0.925882 0.99061,0.925882 1.06583,0 0.79352,-6.226552 -0.34011,-7.776893 -0.96654,-1.321825 -1.08112,-1.273732 -2.22212,0.932703 -0.66166,1.279516 -1.20301,3.383711 -1.20301,4.675984 0,2.104491 0.1285,2.243552 1.23151,1.333018 0.96009,-0.792527 1.30018,-0.812518 1.54312,-0.09071 z M 100.6282,37.38637 c -0.0196,-1.516593 -0.61234,-4.086596 -1.315156,-5.711119 l -1.27789,-2.953666 -1.54158,2.434728 c -1.7506,2.764875 -2.15977,7.773458 -0.75019,9.18302 0.76427,0.764273 1.07084,0.737563 1.61356,-0.140536 0.56698,-0.917415 0.74822,-0.880336 1.17857,0.24115 0.80295,2.09249 2.135936,0.147479 2.092686,-3.053566 z"
       id="path154"
       sodipodi:nodetypes="ssscsssssssssssssssscssssssssscccsscsssssssssscsscsssscssscsssscssscssscsssssssssscsssssssscssssssssssssssssssssssssssssssssssssccsssssssssssssssssssssssssssssssssssssssssssssssssssssssssssssssssssssssssssssscscscscsssssssssssssssssssssssssssssssssssssssssssssssssssssssssscsssscsssssscssscssssssscsscsscssscsssssssssssssssscssssssssssssssssssssssssssssssssssssssssssssssssssssssssssssssssssssssscsccsssssssssscccssssssssssssssssssssssssssscssssssssssssssssssssssssssssssssssssssssssssssssssscssscccscsssssssssssssscsssssscssscsssssssssccsscsss" />
  </g>
</svg>
